<svg xmlns="http://www.w3.org/2000/svg" viewBox="0 0 512 512" width="512" height="512">
  <defs>
    <linearGradient id="z_dark_r1" x1="0%" y1="0%" x2="100%" y2="100%">
      <stop offset="0%" stop-color="#38bdf8" />
      <stop offset="50%" stop-color="#0ea5e9" />
      <stop offset="100%" stop-color="#2563eb" />
    </linearGradient>
    <linearGradient id="z_dark_r2" x1="100%" y1="0%" x2="0%" y2="100%">
      <stop offset="0%" stop-color="#60a5fa" />
      <stop offset="50%" stop-color="#38bdf8" />
      <stop offset="100%" stop-color="#0284c7" />
    </linearGradient>
    <linearGradient id="z_dark_rim" x1="0%" y1="0%" x2="100%" y2="100%">
      <stop offset="0%" stop-color="rgba(255,255,255,0.45)" />
      <stop offset="50%" stop-color="rgba(56,189,248,0.25)" />
      <stop offset="100%" stop-color="rgba(255,255,255,0.08)" />
    </linearGradient>
    <filter id="z_dark_glow" x="-20%" y="-20%" width="140%" height="140%">
      <feDropShadow dx="0" dy="8" stdDeviation="16" flood-color="#0284c7" flood-opacity="0.38" />
    </filter>
  </defs>

  <!-- Dark Mode Frosted Acrylic Base -->
  <rect x="36" y="36" width="440" height="440" rx="105" ry="105" fill="rgba(255,255,255,0.08)" />
  <rect x="36" y="36" width="440" height="440" rx="105" ry="105" fill="none" stroke="url(#z_dark_rim)" stroke-width="2.5" />

  <!-- Luminous Ribbon -->
  <g filter="url(#z_dark_glow)">
    <path d="M 152 168 C 152 116 220 116 264 116 L 316 116 C 368 116 368 176 320 226 L 196 348 C 148 396 200 396 248 396 L 360 396" 
          fill="none" stroke="url(#z_dark_r1)" stroke-width="44" stroke-linecap="round" stroke-linejoin="round" />
    <path d="M 330 156 L 224 278 C 182 326 228 376 266 376 L 358 376" 
          fill="none" stroke="url(#z_dark_r2)" stroke-width="36" stroke-linecap="round" stroke-linejoin="round" opacity="0.92" />
    <circle cx="344" cy="116" r="16" fill="#38bdf8" />
    <circle cx="344" cy="116" r="8" fill="#ffffff" />
  </g>
</svg>
